<svg width="168" height="42" viewBox="0 0 168 42" fill="none" xmlns="http://www.w3.org/2000/svg">
<g clip-path="url(#clip0_14383_7303)">
<path d="M82.6597 16.9546C84.0383 16.9546 85.2369 17.7408 85.8211 18.8916C86.1958 18.681 86.5745 18.4756 86.9593 18.2648C86.1495 16.7183 84.5251 15.665 82.6597 15.665C79.9697 15.665 77.8021 17.8281 77.8021 20.505C77.8021 22.8428 79.4621 24.7952 81.676 25.2474V27.7084H82.9827V25.3296C84.7145 25.2114 86.1904 24.194 86.9539 22.74C86.5645 22.5294 86.1904 22.3238 85.8164 22.1132C85.2376 23.2641 84.0383 24.0502 82.6543 24.0502C80.6822 24.0502 79.0934 22.4626 79.0934 20.505C79.0934 18.5475 80.6822 16.9597 82.6543 16.9597L82.6597 16.9546Z" fill="white"/>
<path d="M55.6706 18.7333C55.3325 19.7608 54.9941 20.7832 54.6508 21.8109C54.2972 20.7832 53.9488 19.7608 53.6106 18.7333C53.2723 17.7056 52.9342 16.678 52.5908 15.6504C52.1809 15.7892 51.7659 15.9279 51.3561 16.0666C51.8993 17.685 52.4473 19.3036 52.9905 20.922C53.5337 22.5405 54.0922 24.1538 54.6508 25.7722C55.1939 24.1538 55.7423 22.5405 56.2855 20.922C56.8286 19.3036 57.387 17.6902 57.9457 16.0666C57.5203 15.9279 57.1105 15.7892 56.7006 15.6504C56.347 16.678 56.0087 17.7056 55.6706 18.7333Z" fill="white"/>
<path d="M62.486 20.49V24.9086H63.7926V16.0713H62.486V20.49Z" fill="white"/>
<path d="M95.5679 13.4512H91.8733V14.7562H95.5679V13.4512Z" fill="white"/>
<path d="M93.7272 15.332C93.1692 16.9505 92.6152 18.5689 92.0673 20.1873C91.524 21.8058 90.9761 23.4192 90.4329 25.0377C90.8425 25.1763 91.2575 25.3151 91.6677 25.4539C92.0055 24.4262 92.3439 23.4038 92.6824 22.3761C93.0201 21.3486 93.374 20.321 93.7225 19.2934C94.0603 20.321 94.3987 21.3486 94.7371 22.3761C95.0749 23.4038 95.4133 24.4262 95.7672 25.4539C96.1768 25.3151 96.5918 25.1763 97.0122 25.0377C96.4535 23.4192 95.9002 21.8058 95.3516 20.1873C94.8083 18.5689 94.2604 16.9505 93.7171 15.332H93.7272Z" fill="white"/>
<path d="M71.5566 15.332C70.9979 16.9505 70.4446 18.5689 69.896 20.1873C69.3528 21.8058 68.8048 23.4192 68.2616 25.0377C68.6712 25.1763 69.0869 25.3151 69.4965 25.4539C69.8349 24.4262 70.1727 23.4038 70.5165 22.3761C70.8542 21.3486 71.2081 20.321 71.5566 19.2934C71.8951 20.321 72.2328 21.3486 72.576 22.3761C72.9144 23.4038 73.2528 24.4262 73.606 25.4539C74.0163 25.3151 74.4313 25.1763 74.8409 25.0377C74.2822 23.4192 73.7397 21.8058 73.1964 20.1873C72.6532 18.5689 72.1046 16.9505 71.5613 15.332H71.5566Z" fill="white"/>
<path d="M104.433 15.7227C101.758 15.7227 99.6002 17.8807 99.6002 20.5421C99.6002 23.2036 101.758 25.3564 104.433 25.3564C107.108 25.3564 109.265 23.1985 109.265 20.5421C109.265 17.8858 107.097 15.7227 104.433 15.7227ZM104.433 24.0874C102.47 24.0874 100.871 22.4996 100.871 20.5421C100.871 18.5846 102.47 16.997 104.433 16.997C106.395 16.997 107.994 18.5846 107.994 20.5421C107.994 22.4996 106.395 24.0874 104.433 24.0874Z" fill="white"/>
<path d="M156.022 20.49V24.9086H157.329V16.0713H156.022V20.49Z" fill="white"/>
<path d="M166.277 20.1873C165.734 18.5689 165.185 16.9505 164.642 15.332C164.084 16.9505 163.53 18.5689 162.982 20.1873C162.439 21.8058 161.89 23.4192 161.347 25.0377C161.758 25.1763 162.172 25.3151 162.583 25.4487C162.92 24.421 163.259 23.3986 163.602 22.3711C163.94 21.3435 164.295 20.3159 164.642 19.2882C164.981 20.3159 165.318 21.3435 165.662 22.3711C166 23.3986 166.338 24.421 166.693 25.4487C167.101 25.31 167.517 25.1712 167.937 25.0377C167.379 23.4192 166.825 21.8058 166.277 20.1873Z" fill="white"/>
<path d="M148.198 16.9546C149.577 16.9546 150.775 17.7408 151.371 18.8916C151.744 18.681 152.124 18.4704 152.497 18.2648C151.698 16.7183 150.074 15.665 148.198 15.665C145.524 15.665 143.34 17.8332 143.34 20.505C143.34 25.566 150.181 27.1689 152.497 22.7451C152.124 22.5345 151.744 22.3289 151.371 22.1183C150.775 23.2692 149.577 24.0553 148.198 24.0553C146.236 24.0553 144.637 22.4677 144.637 20.5102C144.637 18.5526 146.236 16.9649 148.198 16.9649V16.9546Z" fill="white"/>
<path d="M128.593 15.3203C128.034 16.9387 127.481 18.5573 126.933 20.1758C126.39 21.7943 125.841 23.4075 125.298 25.026C125.708 25.1648 126.123 25.3035 126.543 25.4421C126.881 24.4146 127.219 23.3921 127.563 22.3646C127.901 21.3368 128.239 20.3093 128.593 19.2818C128.932 20.3093 129.269 21.3368 129.613 22.3646C129.95 23.3921 130.289 24.4146 130.642 25.4421C131.052 25.3035 131.467 25.1648 131.888 25.026C131.33 23.4075 130.775 21.7943 130.228 20.1758C129.685 18.5573 129.136 16.9387 128.593 15.3203Z" fill="white"/>
<path d="M121.968 20.1773H117.581V21.431H121.87C121.471 22.9571 120.077 24.0874 118.422 24.0874C116.459 24.0874 114.876 22.4996 114.876 20.5421C114.876 18.5846 116.465 16.997 118.422 16.997C119.8 16.997 120.999 17.7831 121.594 18.9237C121.958 18.7027 122.321 18.4819 122.685 18.2557C121.86 16.7504 120.261 15.7227 118.437 15.7227C115.762 15.7227 113.605 17.8807 113.605 20.5421C113.605 23.2036 115.762 25.3564 118.437 25.3564C121.112 25.3564 123.259 23.1985 123.259 20.5421C123.259 20.4189 123.259 20.2955 123.249 20.1773H121.978H121.968Z" fill="white"/>
<path d="M140.026 19.3436C140.026 17.5402 138.513 16.0811 136.634 16.0811C136.244 16.0811 135.88 16.1427 135.541 16.2558H135.531V24.7334H136.837V22.6011C137.043 22.5857 137.248 22.5549 137.458 22.5087C137.944 23.3307 138.426 24.1477 138.924 24.9646C139.297 24.7437 139.677 24.5176 140.05 24.2967C139.58 23.5209 139.119 22.745 138.657 21.9641C139.492 21.368 140.026 20.4176 140.026 19.3436ZM136.837 21.3526V17.3296C137.904 17.4323 138.729 18.2956 138.729 19.3385C138.729 20.3815 137.904 21.2499 136.837 21.3475V21.3526Z" fill="white"/>
<path d="M20.4778 21.1332V21.5084H32.0277C31.3769 29.0253 25.2073 34.6667 17.6646 34.6667C9.69135 34.6667 3.24003 28.1826 3.24003 20.1879C3.24003 12.1932 9.69135 5.70905 17.6646 5.70905C22.2046 5.70905 26.2937 7.75909 28.9634 11.1091L29.2657 10.8881C26.5294 7.44054 22.3276 5.33398 17.6646 5.33398C9.48641 5.33398 2.86597 11.9928 2.86597 20.193C2.86597 28.3933 9.48641 35.0469 17.6646 35.0469C25.8428 35.0469 31.956 29.0355 32.4325 21.1384H20.4778V21.1332Z" fill="white"/>
<path d="M35.2612 20.187C35.2612 19.5652 35.2253 18.9538 35.169 18.3527H27.3341L28.5434 14.3297L33.0732 11.663C32.3456 10.3426 31.454 9.13002 30.4291 8.04589C31.2233 5.38957 32.0228 2.73838 32.817 0.0820312H31.6282C30.9261 2.43523 30.219 4.78843 29.512 7.14165C29.0917 6.76141 28.6561 6.40175 28.2053 6.06265C28.8098 4.06911 29.4094 2.07557 30.0089 0.0820312H29.6144L27.8875 5.8263C27.4674 5.52316 27.0369 5.24057 26.5911 4.97854C27.083 3.34466 27.5698 1.71591 28.0566 0.0820312H26.8678C26.4373 1.53095 26.0019 2.97472 25.5714 4.42363C23.1938 3.22648 20.5139 2.54826 17.6699 2.54826C14.826 2.54826 12.1511 3.22135 9.77868 4.41849C9.34315 2.97472 8.91272 1.53095 8.48229 0.0820312H7.29341C7.78025 1.71591 8.26701 3.34466 8.75895 4.97339C8.30804 5.24057 7.87244 5.52316 7.44719 5.8263L5.7152 0.0820312H5.32064C5.91505 2.08071 6.51969 4.06398 7.12433 6.06265C6.67343 6.40175 6.23786 6.76141 5.81769 7.14165C5.11054 4.78843 4.40341 2.43523 3.7014 0.0820312H2.51258C3.30684 2.73838 4.10621 5.38957 4.90046 8.04589C1.90281 11.2057 0.0632324 15.4805 0.0632324 20.187C0.0632324 28.5619 5.88943 35.5752 13.6987 37.3786L14.8055 41.0729H15.9942L14.9592 37.6201C15.5382 37.7075 16.1275 37.7692 16.727 37.7999L17.6597 40.8879L18.5923 37.7999C19.1918 37.7692 19.7811 37.7075 20.3601 37.6201L19.325 41.0729H20.5139L21.6206 37.3786C29.4298 35.5752 35.2561 28.5619 35.2561 20.187H35.2612ZM26.1453 18.3527H24.485L26.3144 12.3104C26.7347 12.7626 27.1394 13.2456 27.5288 13.7543L26.1505 18.3527H26.1453ZM19.6068 24.282L17.6699 30.7405L11.5004 10.1782C13.2888 9.04782 15.4 8.39527 17.6648 8.39527C20.1039 8.39527 22.1126 9.05293 23.8394 10.1833L21.39 18.3527H17.506V24.282H19.6068ZM22.4098 30.8021C21.8051 31.0745 21.1697 31.3005 20.5139 31.4649L22.6916 24.2768H24.3672L22.4098 30.7969V30.8021ZM25.556 24.282H28.5178C27.6108 26.6762 25.9557 28.6956 23.8292 30.0365L25.556 24.282ZM20.0936 31.5677C19.5863 31.6755 19.0689 31.7525 18.5461 31.7937L20.8007 24.282H22.3022L20.0987 31.5677H20.0936ZM7.83659 13.8672C8.18502 13.3124 8.57449 12.7831 9.01002 12.295L14.8106 31.4649C14.1547 31.3005 13.5194 31.0745 12.9146 30.8021L7.83659 13.8672ZM11.5004 30.0365C8.23116 27.9659 6.0534 24.2923 6.0534 20.11C6.0534 18.3938 6.42233 16.7651 7.07827 15.2957L11.5004 30.0416V30.0365ZM9.30723 11.9765C9.68642 11.5808 10.0913 11.2109 10.5268 10.8718L16.8039 31.7937C16.271 31.7525 15.7483 31.6806 15.236 31.5677L9.30723 11.9765ZM24.8181 10.8975C25.2383 11.2366 25.638 11.6066 26.0223 11.997L24.1008 18.3476H22.5841L24.8181 10.8924V10.8975ZM17.6699 39.5983L17.1318 37.8206C17.3112 37.8257 17.4905 37.8308 17.6699 37.8308C17.8493 37.8308 18.0285 37.8308 18.2079 37.8206L17.6699 39.5983ZM17.6699 36.6338C13.1351 36.6338 9.03057 34.7943 6.05852 31.8143C3.09162 28.8394 1.25716 24.7289 1.25716 20.1819C1.25716 15.6348 3.09162 11.5243 6.05852 8.54944C9.0254 5.57455 13.1299 3.73 17.6699 3.73C20.7138 3.73 23.5576 4.55722 25.9967 6.00099C28.2001 7.30093 30.0653 9.09919 31.454 11.2366L28.4614 12.999C27.2572 11.4318 25.925 10.096 24.3672 9.09919C22.4815 7.89178 20.2986 7.19813 17.6751 7.19813C14.1393 7.19813 10.9418 8.64708 8.62062 10.9848C6.30448 13.3226 4.86971 16.5492 4.86971 20.11C4.86971 23.6705 6.30448 26.8972 8.62062 29.2298C10.9367 31.5677 14.1393 33.0165 17.6751 33.0165C20.3653 33.0165 22.8607 32.1791 24.9258 30.7405C27.0472 29.2659 28.7484 27.1797 29.6348 24.6981L30.2139 23.0899H18.705V19.5396H34.0774C34.0826 19.7348 34.0877 19.9455 34.0877 20.1819C34.0877 24.7289 32.2533 28.8394 29.2864 31.8143C26.3195 34.7891 22.215 36.6338 17.6802 36.6338H17.6699Z" fill="white"/>
</g>
<defs>
<clipPath id="clip0_14383_7303">
<rect width="167.874" height="41.6327" fill="white" transform="translate(0.0632324 0.0820312)"/>
</clipPath>
</defs>
</svg>
